<svg width="24" height="25" viewBox="0 0 24 25" fill="none" xmlns="http://www.w3.org/2000/svg">
<path d="M23.4684 0.751575C23.3 0.582819 23.1 0.448935 22.8797 0.357585C22.6595 0.266236 22.4235 0.219215 22.185 0.219215C21.9466 0.219215 21.7106 0.266236 21.4903 0.357585C21.2701 0.448935 21.0701 0.582819 20.9017 0.751575L12 9.63504L3.09833 0.733371C2.92979 0.564836 2.72972 0.431148 2.50951 0.339937C2.28931 0.248727 2.0533 0.201782 1.81496 0.201782C1.57662 0.201782 1.3406 0.248727 1.1204 0.339937C0.900203 0.431148 0.700123 0.564836 0.531589 0.733371C0.363054 0.901906 0.229365 1.10199 0.138155 1.32219C0.0469448 1.54239 -1.7758e-09 1.7784 0 2.01674C1.7758e-09 2.25509 0.0469448 2.4911 0.138155 2.7113C0.229365 2.9315 0.363054 3.13158 0.531589 3.30011L9.43326 12.2018L0.531589 21.1035C0.363054 21.272 0.229365 21.4721 0.138155 21.6923C0.0469448 21.9125 0 22.1485 0 22.3868C0 22.6252 0.0469448 22.8612 0.138155 23.0814C0.229365 23.3016 0.363054 23.5017 0.531589 23.6702C0.700123 23.8387 0.900203 23.9724 1.1204 24.0636C1.3406 24.1548 1.57662 24.2018 1.81496 24.2018C2.0533 24.2018 2.28931 24.1548 2.50951 24.0636C2.72972 23.9724 2.92979 23.8387 3.09833 23.6702L12 14.7685L20.9017 23.6702C21.0702 23.8387 21.2703 23.9724 21.4905 24.0636C21.7107 24.1548 21.9467 24.2018 22.185 24.2018C22.4234 24.2018 22.6594 24.1548 22.8796 24.0636C23.0998 23.9724 23.2999 23.8387 23.4684 23.6702C23.6369 23.5017 23.7706 23.3016 23.8618 23.0814C23.9531 22.8612 24 22.6252 24 22.3868C24 22.1485 23.9531 21.9125 23.8618 21.6923C23.7706 21.4721 23.6369 21.272 23.4684 21.1035L14.5667 12.2018L23.4684 3.30011C24.1602 2.60837 24.1602 1.44332 23.4684 0.751575Z" fill="black"/>
</svg>
