<svg width="46" height="30" viewBox="0 0 46 30" fill="none" xmlns="http://www.w3.org/2000/svg">
<path d="M3.00001 30C2.29167 30 1.69751 29.76 1.21751 29.28C0.737508 28.8 0.498342 28.2067 0.500009 27.5C0.500009 26.7917 0.740009 26.1975 1.22001 25.7175C1.70001 25.2375 2.29334 24.9983 3.00001 25H43C43.7083 25 44.3025 25.24 44.7825 25.72C45.2625 26.2 45.5017 26.7933 45.5 27.5C45.5 28.2083 45.26 28.8025 44.78 29.2825C44.3 29.7625 43.7067 30.0017 43 30H3.00001ZM3.00001 17.5C2.29167 17.5 1.69751 17.26 1.21751 16.78C0.737508 16.3 0.498342 15.7067 0.500009 15C0.500009 14.2917 0.740009 13.6975 1.22001 13.2175C1.70001 12.7375 2.29334 12.4983 3.00001 12.5H43C43.7083 12.5 44.3025 12.74 44.7825 13.22C45.2625 13.7 45.5017 14.2933 45.5 15C45.5 15.7083 45.26 16.3025 44.78 16.7825C44.3 17.2625 43.7067 17.5017 43 17.5H3.00001ZM3.00001 5.00001C2.29167 5.00001 1.69751 4.76001 1.21751 4.28001C0.737508 3.80001 0.498342 3.20667 0.500009 2.50001C0.500009 1.79167 0.740009 1.19751 1.22001 0.717509C1.70001 0.237509 2.29334 -0.00165802 3.00001 8.6505e-06H43C43.7083 8.6505e-06 44.3025 0.240009 44.7825 0.720009C45.2625 1.20001 45.5017 1.79334 45.5 2.50001C45.5 3.20834 45.26 3.80251 44.78 4.28251C44.3 4.76251 43.7067 5.00167 43 5.00001H3.00001Z" fill="black"/>
</svg>
