<svg width="54" height="59" viewBox="0 0 54 59" fill="none" xmlns="http://www.w3.org/2000/svg">
<path d="M54 4.91667V54.0833C54 55.3873 53.4828 56.6379 52.5622 57.5599C51.6415 58.482 50.3929 59 49.0909 59H36.8182C35.5162 59 34.2676 58.482 33.3469 57.5599C32.4263 56.6379 31.9091 55.3873 31.9091 54.0833V4.91667C31.9091 3.61269 32.4263 2.36211 33.3469 1.44006C34.2676 0.518004 35.5162 0 36.8182 0H49.0909C50.3929 0 51.6415 0.518004 52.5622 1.44006C53.4828 2.36211 54 3.61269 54 4.91667ZM17.1818 0H4.90909C3.60712 0 2.35847 0.518004 1.43784 1.44006C0.517206 2.36211 0 3.61269 0 4.91667V54.0833C0 55.3873 0.517206 56.6379 1.43784 57.5599C2.35847 58.482 3.60712 59 4.90909 59H17.1818C18.4838 59 19.7324 58.482 20.6531 57.5599C21.5737 56.6379 22.0909 55.3873 22.0909 54.0833V4.91667C22.0909 3.61269 21.5737 2.36211 20.6531 1.44006C19.7324 0.518004 18.4838 0 17.1818 0Z" fill="black"/>
</svg>
