<svg width="42" height="42" viewBox="0 0 42 42" fill="none" xmlns="http://www.w3.org/2000/svg">
<path fill-rule="evenodd" clip-rule="evenodd" d="M25.2735 0.647957C26.0505 0.0589047 27.1425 -0.215691 28.2155 0.198417C30.4969 1.07974 32.6158 2.37228 34.4776 4.0184C35.3533 4.79347 35.6746 5.92507 35.578 6.92601C35.4205 8.59352 35.6977 10.2034 36.46 11.5897C37.132 12.8232 38.1442 13.7976 39.379 14.484L39.8515 14.7276C40.7209 15.1417 41.4936 16.0032 41.6889 17.1924C42.1037 19.7128 42.1037 22.2897 41.6889 24.8102C41.5146 25.882 40.87 26.6858 40.1077 27.1376L39.8515 27.2771C38.4025 27.9636 37.2181 29.0266 36.4579 30.4128C35.6977 31.8013 35.4205 33.409 35.578 35.0765C35.6725 36.0775 35.3533 37.2113 34.4776 37.9841C32.6158 39.6303 30.4969 40.9228 28.2155 41.8041C27.7279 41.988 27.205 42.0432 26.6926 41.9649C26.1801 41.8865 25.6936 41.677 25.2756 41.3546C23.982 40.378 22.5183 39.8244 21 39.8244C19.4818 39.8244 18.0181 40.3758 16.7266 41.3546C16.3084 41.6773 15.8215 41.8871 15.3086 41.9654C14.7957 42.0438 14.2724 41.9884 13.7846 41.8041C11.5032 40.9228 9.38428 39.6303 7.52245 37.9841C7.12812 37.6308 6.8217 37.1812 6.62991 36.6744C6.43812 36.1676 6.36676 35.619 6.42207 35.0765C6.57956 33.409 6.30027 31.7991 5.54008 30.4128C4.84771 29.1751 3.83518 28.1711 2.62112 27.5185L2.14863 27.2749C1.67477 27.0536 1.25953 26.7132 0.939214 26.2835C0.618902 25.8539 0.403267 25.348 0.311159 24.8102C-0.10372 22.2897 -0.10372 19.7128 0.311159 17.1924C0.485456 16.1205 1.13015 15.3167 1.89244 14.8649L2.14863 14.7276C3.59761 14.0389 4.78199 12.9782 5.54218 11.5897C6.30027 10.2034 6.57956 8.59352 6.42207 6.92601C6.36676 6.38348 6.43812 5.83492 6.62991 5.32813C6.8217 4.82134 7.12812 4.3717 7.52245 4.0184C9.3843 2.37228 11.5032 1.07974 13.7846 0.198417C14.2722 0.0146888 14.795 -0.0403994 15.3075 0.0379594C15.82 0.116318 16.3065 0.325743 16.7245 0.647957C18.016 1.62676 19.4797 2.17816 21 2.17816C22.5204 2.17816 23.982 1.62676 25.2735 0.647957ZM27.2832 4.56538C25.4646 5.82763 23.3205 6.60713 21 6.60713C18.6796 6.60713 16.5355 5.82542 14.7169 4.56538C13.255 5.18765 11.8835 6.02409 10.643 7.05003C10.769 9.33759 10.3385 11.6849 9.17933 13.8042C8.01804 15.9212 6.30657 17.4869 4.3641 18.5166C4.14525 20.1635 4.14525 21.8346 4.3641 23.4815C6.30657 24.5112 8.01804 26.0769 9.17933 28.1983C10.3385 30.3132 10.769 32.6605 10.643 34.9481C11.8834 35.9748 13.2549 36.812 14.7169 37.4349C16.5355 36.1727 18.6796 35.3932 21 35.3932C23.3205 35.3932 25.4646 36.1749 27.2832 37.4349C28.745 36.8126 30.1165 35.9762 31.3571 34.9503C31.2311 32.6605 31.6616 30.3132 32.8208 28.1961C33.98 26.0769 35.6935 24.5112 37.636 23.4793C37.8548 21.8338 37.8548 20.1643 37.636 18.5188C35.6935 17.4869 33.9821 15.9212 32.8208 13.802C31.6616 11.6849 31.2311 9.33759 31.3571 7.04781C30.1165 6.02188 28.7451 5.18765 27.2832 4.56538ZM21 12.1433C23.2278 12.1433 25.3644 13.0766 26.9397 14.7378C28.5149 16.3989 29.3999 18.652 29.3999 21.0013C29.3999 23.3505 28.5149 25.6036 26.9397 27.2648C25.3644 28.926 23.2278 29.8592 21 29.8592C18.7723 29.8592 16.6357 28.926 15.0604 27.2648C13.4852 25.6036 12.6002 23.3505 12.6002 21.0013C12.6002 18.652 13.4852 16.3989 15.0604 14.7378C16.6357 13.0766 18.7723 12.1433 21 12.1433ZM21 16.5723C19.8862 16.5723 18.8179 17.0389 18.0302 17.8695C17.2426 18.7001 16.8001 19.8266 16.8001 21.0013C16.8001 22.1759 17.2426 23.3024 18.0302 24.133C18.8179 24.9636 19.8862 25.4302 21 25.4302C22.1139 25.4302 23.1822 24.9636 23.9699 24.133C24.7575 23.3024 25.2 22.1759 25.2 21.0013C25.2 19.8266 24.7575 18.7001 23.9699 17.8695C23.1822 17.0389 22.1139 16.5723 21 16.5723Z" fill="black"/>
</svg>
